HIERARCHY
ROOT Hips
{
  OFFSET 0.000000 95.000000 0.000000
  CHANNELS 6 Xposition Yposition Zposition Zrotation Xrotation Yrotation
  JOINT Spine
  {
    OFFSET 0.000000 10.000000 0.000000
    CHANNELS 3 Zrotation Xrotation Yrotation
    JOINT Spine1
    {
      OFFSET 0.000000 12.000000 0.000000
      CHANNELS 3 Zrotation Xrotation Yrotation
      JOINT Spine2
      {
        OFFSET 0.000000 12.000000 0.000000
        CHANNELS 3 Zrotation Xrotation Yrotation
        JOINT Neck
        {
          OFFSET 0.000000 10.000000 0.000000
          CHANNELS 3 Zrotation Xrotation Yrotation
          JOINT Head
          {
            OFFSET 0.000000 8.000000 0.000000
            CHANNELS 3 Zrotation Xrotation Yrotation
            End Site
            {
              OFFSET 0.000000 10.000000 0.000000
            }
          }
        }
        JOINT LeftShoulder
        {
          OFFSET 6.000000 8.000000 0.000000
          CHANNELS 3 Zrotation Xrotation Yrotation
          JOINT LeftArm
          {
            OFFSET 12.000000 0.000000 0.000000
            CHANNELS 3 Zrotation Xrotation Yrotation
            JOINT LeftForeArm
            {
              OFFSET 24.000000 0.000000 0.000000
              CHANNELS 3 Zrotation Xrotation Yrotation
              JOINT LeftHand
              {
                OFFSET 22.000000 0.000000 0.000000
                CHANNELS 3 Zrotation Xrotation Yrotation
                JOINT LeftHandThumb1
                {
                  OFFSET 1.800000 -1.400000 0.500000
                  CHANNELS 3 Zrotation Xrotation Yrotation
                  JOINT LeftHandThumb2
                  {
                    OFFSET 2.400000 0.000000 0.000000
                    CHANNELS 3 Zrotation Xrotation Yrotation
                    JOINT LeftHandThumb3
                    {
                      OFFSET 1.900000 0.000000 0.000000
                      CHANNELS 3 Zrotation Xrotation Yrotation
                      End Site
                      {
                        OFFSET 1.600000 0.000000 0.000000
                      }
                    }
                  }
                }
                JOINT LeftHandIndex1
                {
                  OFFSET 6.600000 1.200000 0.300000
                  CHANNELS 3 Zrotation Xrotation Yrotation
                  JOINT LeftHandIndex2
                  {
                    OFFSET 2.000000 0.000000 0.000000
                    CHANNELS 3 Zrotation Xrotation Yrotation
                    JOINT LeftHandIndex3
                    {
                      OFFSET 1.200000 0.000000 0.000000
                      CHANNELS 3 Zrotation Xrotation Yrotation
                      End Site
                      {
                        OFFSET 1.000000 0.000000 0.000000
                      }
                    }
                  }
                }
                JOINT LeftHandMiddle1
                {
                  OFFSET 7.200000 0.000000 0.300000
                  CHANNELS 3 Zrotation Xrotation Yrotation
                  JOINT LeftHandMiddle2
                  {
                    OFFSET 3.000000 0.000000 0.000000
                    CHANNELS 3 Zrotation Xrotation Yrotation
                    JOINT LeftHandMiddle3
                    {
                      OFFSET 2.000000 0.000000 0.000000
                      CHANNELS 3 Zrotation Xrotation Yrotation
                      End Site
                      {
                        OFFSET 1.600000 0.000000 0.000000
                      }
                    }
                  }
                }
                JOINT LeftHandRing1
                {
                  OFFSET 7.100000 -1.000000 0.400000
                  CHANNELS 3 Zrotation Xrotation Yrotation
                  JOINT LeftHandRing2
                  {
                    OFFSET 2.600000 0.000000 0.000000
                    CHANNELS 3 Zrotation Xrotation Yrotation
                    JOINT LeftHandRing3
                    {
                      OFFSET 1.600000 0.000000 0.000000
                      CHANNELS 3 Zrotation Xrotation Yrotation
                      End Site
                      {
                        OFFSET 1.300000 0.000000 0.000000
                      }
                    }
                  }
                }
                JOINT LeftHandPinky1
                {
                  OFFSET 6.500000 -2.000000 0.500000
                  CHANNELS 3 Zrotation Xrotation Yrotation
                  JOINT LeftHandPinky2
                  {
                    OFFSET 1.900000 0.000000 0.000000
                    CHANNELS 3 Zrotation Xrotation Yrotation
                    JOINT LeftHandPinky3
                    {
                      OFFSET 1.400000 0.000000 0.000000
                      CHANNELS 3 Zrotation Xrotation Yrotation
                      End Site
                      {
                        OFFSET 1.300000 0.000000 0.000000
                      }
                    }
                  }
                }
              }
            }
          }
        }
        JOINT RightShoulder
        {
          OFFSET -6.000000 8.000000 0.000000
          CHANNELS 3 Zrotation Xrotation Yrotation
          JOINT RightArm
          {
            OFFSET -12.000000 0.000000 0.000000
            CHANNELS 3 Zrotation Xrotation Yrotation
            JOINT RightForeArm
            {
              OFFSET -24.000000 0.000000 0.000000
              CHANNELS 3 Zrotation Xrotation Yrotation
              JOINT RightHand
              {
                OFFSET -22.000000 0.000000 0.000000
                CHANNELS 3 Zrotation Xrotation Yrotation
                JOINT RightHandThumb1
                {
                  OFFSET -1.800000 -1.400000 0.500000
                  CHANNELS 3 Zrotation Xrotation Yrotation
                  JOINT RightHandThumb2
                  {
                    OFFSET -2.400000 0.000000 0.000000
                    CHANNELS 3 Zrotation Xrotation Yrotation
                    JOINT RightHandThumb3
                    {
                      OFFSET -1.900000 0.000000 0.000000
                      CHANNELS 3 Zrotation Xrotation Yrotation
                      End Site
                      {
                        OFFSET -1.600000 0.000000 0.000000
                      }
                    }
                  }
                }
                JOINT RightHandIndex1
                {
                  OFFSET -6.600000 1.200000 0.300000
                  CHANNELS 3 Zrotation Xrotation Yrotation
                  JOINT RightHandIndex2
                  {
                    OFFSET -2.000000 0.000000 0.000000
                    CHANNELS 3 Zrotation Xrotation Yrotation
                    JOINT RightHandIndex3
                    {
                      OFFSET -1.200000 0.000000 0.000000
                      CHANNELS 3 Zrotation Xrotation Yrotation
                      End Site
                      {
                        OFFSET -1.000000 0.000000 0.000000
                      }
                    }
                  }
                }
                JOINT RightHandMiddle1
                {
                  OFFSET -7.200000 0.000000 0.300000
                  CHANNELS 3 Zrotation Xrotation Yrotation
                  JOINT RightHandMiddle2
                  {
                    OFFSET -3.000000 0.000000 0.000000
                    CHANNELS 3 Zrotation Xrotation Yrotation
                    JOINT RightHandMiddle3
                    {
                      OFFSET -2.000000 0.000000 0.000000
                      CHANNELS 3 Zrotation Xrotation Yrotation
                      End Site
                      {
                        OFFSET -1.600000 0.000000 0.000000
                      }
                    }
                  }
                }
                JOINT RightHandRing1
                {
                  OFFSET -7.100000 -1.000000 0.400000
                  CHANNELS 3 Zrotation Xrotation Yrotation
                  JOINT RightHandRing2
                  {
                    OFFSET -2.600000 0.000000 0.000000
                    CHANNELS 3 Zrotation Xrotation Yrotation
                    JOINT RightHandRing3
                    {
                      OFFSET -1.600000 0.000000 0.000000
                      CHANNELS 3 Zrotation Xrotation Yrotation
                      End Site
                      {
                        OFFSET -1.300000 0.000000 0.000000
                      }
                    }
                  }
                }
                JOINT RightHandPinky1
                {
                  OFFSET -6.500000 -2.000000 0.500000
                  CHANNELS 3 Zrotation Xrotation Yrotation
                  JOINT RightHandPinky2
                  {
                    OFFSET -1.900000 0.000000 0.000000
                    CHANNELS 3 Zrotation Xrotation Yrotation
                    JOINT RightHandPinky3
                    {
                      OFFSET -1.400000 0.000000 0.000000
                      CHANNELS 3 Zrotation Xrotation Yrotation
                      End Site
                      {
                        OFFSET -1.300000 0.000000 0.000000
                      }
                    }
                  }
                }
              }
            }
          }
        }
      }
    }
  }
  JOINT LeftUpLeg
  {
    OFFSET 10.000000 -5.000000 0.000000
    CHANNELS 3 Zrotation Xrotation Yrotation
    JOINT LeftLeg
    {
      OFFSET 0.000000 -42.000000 0.000000
      CHANNELS 3 Zrotation Xrotation Yrotation
      JOINT LeftFoot
      {
        OFFSET 0.000000 -42.000000 4.000000
        CHANNELS 3 Zrotation Xrotation Yrotation
        End Site
        {
          OFFSET 0.000000 0.000000 12.000000
        }
      }
    }
  }
  JOINT RightUpLeg
  {
    OFFSET -10.000000 -5.000000 0.000000
    CHANNELS 3 Zrotation Xrotation Yrotation
    JOINT RightLeg
    {
      OFFSET 0.000000 -42.000000 0.000000
      CHANNELS 3 Zrotation Xrotation Yrotation
      JOINT RightFoot
      {
        OFFSET 0.000000 -42.000000 4.000000
        CHANNELS 3 Zrotation Xrotation Yrotation
        End Site
        {
          OFFSET 0.000000 0.000000 12.000000
        }
      }
    }
  }
}
MOTION
Frames: 8
Frame Time: 0.033333
0.0588 0.2326 -0.1213 -4.7673 9.9644 14.7621 3.5187 0.9330 -14.8317 0.0000 0.0000 0.0000 0.0000 0.0000 0.0000 13.9612 51.0481 9.2408 0.0000 0.0000 0.0000 0.0000 0.0000 0.0000 -79.0242 -0.1894 11.5342 -5.2360 6.1047 -6.7169 -169.3507 6.6558 176.4799 47.2902 -8.4813 7.9604 11.6856 0.0000 0.0000 2.9818 0.0000 0.0000 -6.9352 0.1145 1.6492 9.9818 0.0000 0.0000 2.7534 0.0000 0.0000 6.5939 -0.2942 0.3321 30.4985 0.0000 0.0000 19.0197 0.0000 0.0000 14.3900 -0.8031 -0.1662 40.6101 0.0000 0.0000 30.6412 0.0000 0.0000 21.5936 -1.6546 -0.6114 34.2386 0.0000 0.0000 43.3348 0.0000 0.0000 0.0000 0.0000 0.0000 61.0245 -38.2688 46.3419 208.7597 33.1206 296.6688 -25.0973 -13.1061 325.1100 -46.5313 -10.9901 3.1896 6.8205 0.0000 0.0000 3.2357 0.0000 0.0000 3.7206 3.5209 22.5095 45.5084 0.0000 0.0000 15.7375 0.0000 0.0000 -2.7929 0.1266 9.9597 19.0380 0.0000 0.0000 5.7308 0.0000 0.0000 -4.0403 -0.3372 1.0546 14.4614 0.0000 0.0000 5.9741 0.0000 0.0000 -10.4422 0.2438 -4.8757 8.2912 0.0000 0.0000 4.7100 0.0000 0.0000 7.9301 -7.6678 -15.6125 0.0000 0.0000 0.0000 0.0000 0.0000 0.0000 16.9584 -0.2014 -13.9540 0.0000 0.0000 0.0000 0.0000 0.0000 0.0000
0.0671 0.2328 -0.1078 -5.1209 10.6006 14.6252 3.7702 0.9910 -14.7061 0.0000 0.0000 0.0000 0.0000 0.0000 0.0000 14.2834 50.3203 9.4466 0.0000 0.0000 0.0000 0.0000 0.0000 0.0000 -79.5885 -1.0748 11.0725 -3.9661 5.9189 -6.5285 -169.3659 9.8495 178.6848 47.0361 -8.2723 8.5449 10.2969 0.0000 0.0000 2.7879 0.0000 0.0000 -5.8282 0.0182 1.8850 11.3668 0.0000 0.0000 1.3509 0.0000 0.0000 8.5846 -0.3796 0.2831 29.0678 0.0000 0.0000 16.4117 0.0000 0.0000 15.8758 -0.8834 -0.6105 38.3326 0.0000 0.0000 29.1148 0.0000 0.0000 21.7977 -1.7418 -1.2972 30.6752 0.0000 0.0000 35.5555 0.0000 0.0000 0.0000 0.0000 0.0000 60.7832 -38.9141 46.5734 210.4194 33.8212 297.3154 -25.6096 17.6083 311.9062 -56.8827 -12.0046 -0.5613 1.7281 0.0000 0.0000 1.8457 0.0000 0.0000 -14.6393 4.8767 17.4891 31.8946 0.0000 0.0000 8.4020 0.0000 0.0000 -0.2662 -0.0081 1.2645 13.9937 0.0000 0.0000 0.9773 0.0000 0.0000 3.5960 0.7066 -2.9012 11.0269 0.0000 0.0000 0.7440 0.0000 0.0000 -0.6015 1.5544 -5.2791 6.3459 0.0000 0.0000 2.1475 0.0000 0.0000 8.1828 -10.4913 -15.9272 0.0000 0.0000 0.0000 0.0000 0.0000 0.0000 17.2180 -0.8181 -13.9100 0.0000 0.0000 0.0000 0.0000 0.0000 0.0000
0.0735 0.2330 -0.0975 -5.3891 11.0717 14.5172 3.9512 1.0315 -14.6082 0.0000 0.0000 0.0000 0.0000 0.0000 0.0000 14.5473 49.7772 9.6134 0.0000 0.0000 0.0000 0.0000 0.0000 0.0000 -80.0178 -1.7515 10.7018 -2.9829 5.7661 -6.3693 -168.9301 9.9801 178.9212 47.0361 -8.2723 8.5449 10.2969 0.0000 0.0000 2.7879 0.0000 0.0000 -5.8282 0.0182 1.8850 11.3668 0.0000 0.0000 1.3509 0.0000 0.0000 8.5846 -0.3796 0.2831 29.0678 0.0000 0.0000 16.4117 0.0000 0.0000 15.8758 -0.8834 -0.6105 38.3326 0.0000 0.0000 29.1148 0.0000 0.0000 21.7977 -1.7418 -1.2972 30.6752 0.0000 0.0000 35.5555 0.0000 0.0000 0.0000 0.0000 0.0000 60.6323 -39.3947 46.7237 211.5625 34.2204 297.7948 -26.7517 17.3566 311.7209 -56.8827 -12.0046 -0.5613 1.7281 0.0000 0.0000 1.8457 0.0000 0.0000 -14.6393 4.8767 17.4891 31.8946 0.0000 0.0000 8.4020 0.0000 0.0000 -0.2662 -0.0081 1.2645 13.9937 0.0000 0.0000 0.9773 0.0000 0.0000 3.5960 0.7066 -2.9012 11.0269 0.0000 0.0000 0.7440 0.0000 0.0000 -0.6015 1.5544 -5.2791 6.3459 0.0000 0.0000 2.1475 0.0000 0.0000 8.3878 -12.8205 -16.2184 0.0000 0.0000 0.0000 0.0000 0.0000 0.0000 17.4107 -1.2732 -13.8771 0.0000 0.0000 0.0000 0.0000 0.0000 0.0000
0.0735 0.2348 -0.0972 -5.5098 10.8038 13.9336 3.7162 0.9322 -14.0621 0.0000 0.0000 0.0000 0.0000 0.0000 0.0000 14.9245 50.1655 9.9513 0.0000 0.0000 0.0000 0.0000 0.0000 0.0000 -79.8270 -1.5882 10.5778 -3.0488 5.9274 -6.5600 -169.4149 8.5922 178.7140 46.3190 -8.1797 8.1534 10.7318 0.0000 0.0000 3.8779 0.0000 0.0000 -6.9958 0.1733 1.1865 11.2272 0.0000 0.0000 1.5976 0.0000 0.0000 7.0369 -0.2721 -0.3490 28.6659 0.0000 0.0000 17.4970 0.0000 0.0000 14.3569 -0.8215 -1.5834 37.5000 0.0000 0.0000 27.8746 0.0000 0.0000 20.7909 -1.8429 -2.6823 30.5844 0.0000 0.0000 38.5621 0.0000 0.0000 0.0000 0.0000 0.0000 61.8578 -38.8072 45.0550 211.2704 34.8863 298.5395 -36.8365 29.7868 299.5233 -59.4778 -11.9919 -4.5142 6.6483 0.0000 0.0000 8.7732 0.0000 0.0000 -9.7823 0.1292 2.1427 16.8016 0.0000 0.0000 5.6818 0.0000 0.0000 -0.3685 -0.0128 0.7909 16.2708 0.0000 0.0000 5.6766 0.0000 0.0000 -3.7708 -0.5090 2.7753 11.7172 0.0000 0.0000 4.7761 0.0000 0.0000 2.1111 -0.7955 2.9276 5.8326 0.0000 0.0000 7.5389 0.0000 0.0000 8.0826 -14.2317 -15.8386 0.0000 0.0000 0.0000 0.0000 0.0000 0.0000 16.9662 -1.2214 -13.3448 0.0000 0.0000 0.0000 0.0000 0.0000 0.0000
0.0692 0.2464 -0.1026 -5.5595 11.0663 13.5599 3.6419 0.8895 -13.7070 0.0000 0.0000 0.0000 0.0000 0.0000 0.0000 15.6929 49.9492 10.4093 0.0000 0.0000 0.0000 0.0000 0.0000 0.0000 -79.7689 -2.0401 10.3406 -2.9423 5.7853 -6.4026 -170.0469 10.3002 177.9630 48.0634 -8.8522 7.2304 11.4007 0.0000 0.0000 2.2031 0.0000 0.0000 -5.8594 0.1252 1.0736 11.2120 0.0000 0.0000 1.7087 0.0000 0.0000 8.4148 -0.2851 -0.8976 31.2501 0.0000 0.0000 20.3302 0.0000 0.0000 15.4828 -0.8702 -2.0758 39.4454 0.0000 0.0000 32.1310 0.0000 0.0000 22.0360 -1.9276 -2.9270 32.7630 0.0000 0.0000 37.7661 0.0000 0.0000 0.0000 0.0000 0.0000 61.0355 -38.4120 44.6456 211.5134 36.3810 299.2849 -33.2952 34.6489 299.2703 -63.1575 -12.6713 -5.7439 9.5292 0.0000 0.0000 0.6331 0.0000 0.0000 -14.9724 1.0651 5.5077 27.4956 0.0000 0.0000 6.8339 0.0000 0.0000 0.7274 0.0324 -0.3220 14.0022 0.0000 0.0000 2.2212 0.0000 0.0000 2.4902 -0.0717 1.3028 10.2594 0.0000 0.0000 1.2534 0.0000 0.0000 4.2861 -0.5394 2.5031 3.2591 0.0000 0.0000 3.9485 0.0000 0.0000 7.8604 -14.1368 -15.4450 0.0000 0.0000 0.0000 0.0000 0.0000 0.0000 16.3974 -1.6260 -13.0745 0.0000 0.0000 0.0000 0.0000 0.0000 0.0000
0.0660 0.2552 -0.1068 -5.5973 11.2602 13.2740 3.5807 0.8566 -13.4361 0.0000 0.0000 0.0000 0.0000 0.0000 0.0000 16.2699 49.7840 10.7531 0.0000 0.0000 0.0000 0.0000 0.0000 0.0000 -79.7200 -2.3731 10.1668 -2.8650 5.6774 -6.2828 -170.0010 10.3396 178.0149 48.0634 -8.8522 7.2304 11.4007 0.0000 0.0000 2.2031 0.0000 0.0000 -5.8594 0.1252 1.0736 11.2120 0.0000 0.0000 1.7087 0.0000 0.0000 8.4148 -0.2851 -0.8976 31.2501 0.0000 0.0000 20.3302 0.0000 0.0000 15.4828 -0.8702 -2.0758 39.4454 0.0000 0.0000 32.1310 0.0000 0.0000 22.0360 -1.9276 -2.9270 32.7630 0.0000 0.0000 37.7661 0.0000 0.0000 0.0000 0.0000 0.0000 60.4117 -38.1090 44.3242 211.6743 37.5110 299.8532 -33.4956 34.8901 298.7189 -63.1575 -12.6713 -5.7439 9.5292 0.0000 0.0000 0.6331 0.0000 0.0000 -14.9724 1.0651 5.5077 27.4956 0.0000 0.0000 6.8339 0.0000 0.0000 0.7274 0.0324 -0.3220 14.0022 0.0000 0.0000 2.2212 0.0000 0.0000 2.4902 -0.0717 1.3028 10.2594 0.0000 0.0000 1.2534 0.0000 0.0000 4.2861 -0.5394 2.5031 3.2591 0.0000 0.0000 3.9485 0.0000 0.0000 7.6933 -14.0811 -15.1471 0.0000 0.0000 0.0000 0.0000 0.0000 0.0000 15.9727 -1.9296 -12.8658 0.0000 0.0000 0.0000 0.0000 0.0000 0.0000
0.0693 0.2537 -0.1056 -5.6951 11.0554 12.6663 3.5432 0.8087 -12.8408 0.0000 0.0000 0.0000 0.0000 0.0000 0.0000 15.9688 49.7631 10.5603 0.0000 0.0000 0.0000 0.0000 0.0000 0.0000 -79.9033 -2.3247 9.9591 -2.3708 5.4921 -6.0772 -170.2100 12.2961 177.5061 49.2118 -9.3845 6.1274 11.7684 0.0000 0.0000 2.8216 0.0000 0.0000 -5.3604 0.0956 1.0919 11.8804 0.0000 0.0000 2.8046 0.0000 0.0000 9.2350 -0.3069 -0.9733 27.0065 0.0000 0.0000 17.9491 0.0000 0.0000 16.2774 -0.8995 -2.1548 35.6240 0.0000 0.0000 31.0533 0.0000 0.0000 23.0528 -2.0187 -3.3970 29.2263 0.0000 0.0000 33.1818 0.0000 0.0000 0.0000 0.0000 0.0000 60.9013 -37.7532 43.6401 211.5571 37.6643 300.1962 -34.3346 36.5024 301.1631 -60.4936 -12.0615 -5.8266 8.9038 0.0000 0.0000 0.1828 0.0000 0.0000 -12.7530 1.6035 7.3400 34.5884 0.0000 0.0000 12.9869 0.0000 0.0000 -0.2071 -0.0061 1.3921 12.1937 0.0000 0.0000 0.8743 0.0000 0.0000 4.0359 -0.2984 2.9799 6.9670 0.0000 0.0000 1.4429 0.0000 0.0000 5.0835 -1.0064 3.9370 2.2025 0.0000 0.0000 4.3640 0.0000 0.0000 7.6131 -14.5487 -14.6042 0.0000 0.0000 0.0000 0.0000 0.0000 0.0000 15.4443 -2.0126 -12.3299 0.0000 0.0000 0.0000 0.0000 0.0000 0.0000
0.0718 0.2525 -0.1047 -5.7692 10.9036 12.2025 3.5175 0.7735 -12.3857 0.0000 0.0000 0.0000 0.0000 0.0000 0.0000 15.7413 49.7460 10.4153 0.0000 0.0000 0.0000 0.0000 0.0000 0.0000 -80.0413 -2.2884 9.8084 -2.0022 5.3567 -5.9284 -170.0072 12.2866 177.5420 49.2118 -9.3845 6.1274 11.7684 0.0000 0.0000 2.8216 0.0000 0.0000 -5.3604 0.0956 1.0919 11.8804 0.0000 0.0000 2.8046 0.0000 0.0000 9.2350 -0.3069 -0.9733 27.0065 0.0000 0.0000 17.9491 0.0000 0.0000 16.2774 -0.8995 -2.1548 35.6240 0.0000 0.0000 31.0533 0.0000 0.0000 23.0528 -2.0187 -3.3970 29.2263 0.0000 0.0000 33.1818 0.0000 0.0000 0.0000 0.0000 0.0000 61.2761 -37.4826 43.1173 211.4767 37.8291 300.4523 -34.4783 36.4349 301.1228 -60.4936 -12.0615 -5.8266 8.9038 0.0000 0.0000 0.1828 0.0000 0.0000 -12.7530 1.6035 7.3400 34.5884 0.0000 0.0000 12.9869 0.0000 0.0000 -0.2071 -0.0061 1.3921 12.1937 0.0000 0.0000 0.8743 0.0000 0.0000 4.0359 -0.2984 2.9799 6.9670 0.0000 0.0000 1.4429 0.0000 0.0000 5.0835 -1.0064 3.9370 2.2025 0.0000 0.0000 4.3640 0.0000 0.0000 7.5553 -14.8841 -14.1862 0.0000 0.0000 0.0000 0.0000 0.0000 0.0000 15.0549 -2.0807 -11.9188 0.0000 0.0000 0.0000 0.0000 0.0000 0.0000
